<mxfile host="app.diagrams.net" modified="2021-04-16T23:30:34.328Z" agent="5.0 (Macintosh; Intel Mac OS X 11_2_3) AppleWebKit/537.36 (KHTML, like Gecko) Chrome/89.0.4389.90 Safari/537.36" etag="2JMfJ9Yxov05M8CwpUuL" version="14.6.0" type="github">
  <diagram id="W1GqJup9wNc6WtiXOJ7W" name="Page-1">
    <mxGraphModel dx="786" dy="514" grid="1" gridSize="10" guides="1" tooltips="1" connect="1" arrows="1" fold="1" page="1" pageScale="1" pageWidth="850" pageHeight="1100" background="#F1FAEE" math="0" shadow="0">
      <root>
        <mxCell id="0" />
        <mxCell id="1" parent="0" />
        <mxCell id="qwMEgNqUELlIysywhyPq-1" style="edgeStyle=orthogonalEdgeStyle;rounded=1;orthogonalLoop=1;jettySize=auto;html=1;exitX=0.5;exitY=0;exitDx=0;exitDy=0;fontSize=17;fontColor=#1D3557;strokeColor=#457B9D;labelBackgroundColor=#F1FAEE;endArrow=none;" parent="1" source="VJS7mcSHAPVx8ojferBD-5" edge="1">
          <mxGeometry relative="1" as="geometry">
            <mxPoint x="643" y="470" as="targetPoint" />
          </mxGeometry>
        </mxCell>
        <mxCell id="qwMEgNqUELlIysywhyPq-11" style="edgeStyle=orthogonalEdgeStyle;rounded=1;orthogonalLoop=1;jettySize=auto;html=1;exitX=0.25;exitY=1;exitDx=0;exitDy=0;entryX=0.583;entryY=-0.033;entryDx=0;entryDy=0;entryPerimeter=0;fontSize=17;fontColor=#1D3557;strokeColor=#457B9D;labelBackgroundColor=#F1FAEE;endArrow=none;" parent="1" source="VJS7mcSHAPVx8ojferBD-5" target="VJS7mcSHAPVx8ojferBD-9" edge="1">
          <mxGeometry relative="1" as="geometry">
            <Array as="points">
              <mxPoint x="600" y="650" />
              <mxPoint x="580" y="650" />
            </Array>
          </mxGeometry>
        </mxCell>
        <mxCell id="qwMEgNqUELlIysywhyPq-14" style="edgeStyle=orthogonalEdgeStyle;rounded=1;orthogonalLoop=1;jettySize=auto;html=1;exitX=0.5;exitY=1;exitDx=0;exitDy=0;entryX=0.5;entryY=0;entryDx=0;entryDy=0;fontSize=17;fontColor=#1D3557;strokeColor=#457B9D;labelBackgroundColor=#F1FAEE;endArrow=none;" parent="1" source="VJS7mcSHAPVx8ojferBD-5" target="qwMEgNqUELlIysywhyPq-13" edge="1">
          <mxGeometry relative="1" as="geometry">
            <Array as="points">
              <mxPoint x="630" y="650" />
              <mxPoint x="660" y="650" />
              <mxPoint x="660" y="690" />
            </Array>
          </mxGeometry>
        </mxCell>
        <mxCell id="VJS7mcSHAPVx8ojferBD-5" value="" style="rounded=0;whiteSpace=wrap;html=1;labelBorderColor=none;fontSize=17;fillColor=#A8DADC;strokeColor=#457B9D;fontColor=#1D3557;" parent="1" vertex="1">
          <mxGeometry x="570" y="550" width="120" height="60" as="geometry" />
        </mxCell>
        <mxCell id="VJS7mcSHAPVx8ojferBD-6" value="" style="rounded=0;whiteSpace=wrap;html=1;labelBorderColor=none;fontSize=17;fillColor=#A8DADC;strokeColor=#457B9D;fontColor=#1D3557;" parent="1" vertex="1">
          <mxGeometry x="380" y="410" width="120" height="60" as="geometry" />
        </mxCell>
        <mxCell id="VJS7mcSHAPVx8ojferBD-7" value="WheelSysterm" style="rounded=0;whiteSpace=wrap;html=1;labelBorderColor=none;fontSize=17;fillColor=#A8DADC;strokeColor=#457B9D;fontColor=#1D3557;" parent="1" vertex="1">
          <mxGeometry x="380" y="550" width="120" height="60" as="geometry" />
        </mxCell>
        <mxCell id="VJS7mcSHAPVx8ojferBD-8" value="Listing" style="rounded=0;whiteSpace=wrap;html=1;labelBorderColor=none;fontSize=17;fillColor=#A8DADC;strokeColor=#457B9D;fontColor=#1D3557;" parent="1" vertex="1">
          <mxGeometry x="790" y="410" width="120" height="60" as="geometry" />
        </mxCell>
        <mxCell id="VJS7mcSHAPVx8ojferBD-9" value="Depreciation Factor" style="rounded=0;whiteSpace=wrap;html=1;labelBorderColor=none;fontSize=17;fillColor=#A8DADC;strokeColor=#457B9D;fontColor=#1D3557;" parent="1" vertex="1">
          <mxGeometry x="510" y="690" width="120" height="60" as="geometry" />
        </mxCell>
        <mxCell id="VJS7mcSHAPVx8ojferBD-10" value="FuelSpecs" style="rounded=0;whiteSpace=wrap;html=1;labelBorderColor=none;fontSize=17;fillColor=#A8DADC;strokeColor=#457B9D;fontColor=#1D3557;" parent="1" vertex="1">
          <mxGeometry x="750" y="550" width="120" height="60" as="geometry" />
        </mxCell>
        <mxCell id="VJS7mcSHAPVx8ojferBD-11" value="TrimPackage" style="rounded=0;whiteSpace=wrap;html=1;labelBorderColor=none;fontSize=17;fillColor=#A8DADC;strokeColor=#457B9D;fontColor=#1D3557;" parent="1" vertex="1">
          <mxGeometry x="780" y="690" width="120" height="60" as="geometry" />
        </mxCell>
        <mxCell id="VJS7mcSHAPVx8ojferBD-12" value="Engine" style="rounded=0;whiteSpace=wrap;html=1;labelBorderColor=none;fontSize=17;fillColor=#A8DADC;strokeColor=#457B9D;fontColor=#1D3557;" parent="1" vertex="1">
          <mxGeometry x="380" y="690" width="120" height="60" as="geometry" />
        </mxCell>
        <mxCell id="VJS7mcSHAPVx8ojferBD-13" value="" style="endArrow=none;html=1;entryX=0;entryY=0.5;entryDx=0;entryDy=0;labelBorderColor=none;fontSize=17;strokeColor=#457B9D;fontColor=#1D3557;labelBackgroundColor=#F1FAEE;" parent="1" target="VJS7mcSHAPVx8ojferBD-5" edge="1">
          <mxGeometry width="50" height="50" relative="1" as="geometry">
            <mxPoint x="500" y="580" as="sourcePoint" />
            <mxPoint x="550" y="530" as="targetPoint" />
          </mxGeometry>
        </mxCell>
        <mxCell id="VJS7mcSHAPVx8ojferBD-16" value="" style="endArrow=none;html=1;labelBorderColor=none;fontSize=17;strokeColor=#457B9D;fontColor=#1D3557;labelBackgroundColor=#F1FAEE;" parent="1" edge="1">
          <mxGeometry width="50" height="50" relative="1" as="geometry">
            <mxPoint x="600" y="550" as="sourcePoint" />
            <mxPoint x="430" y="470" as="targetPoint" />
            <Array as="points">
              <mxPoint x="600" y="510" />
              <mxPoint x="430" y="510" />
            </Array>
          </mxGeometry>
        </mxCell>
        <mxCell id="VJS7mcSHAPVx8ojferBD-18" value="" style="endArrow=none;html=1;labelBorderColor=none;fontSize=17;strokeColor=#457B9D;fontColor=#1D3557;labelBackgroundColor=#F1FAEE;" parent="1" edge="1">
          <mxGeometry width="50" height="50" relative="1" as="geometry">
            <mxPoint x="510" y="602.5" as="sourcePoint" />
            <mxPoint x="510" y="557.5" as="targetPoint" />
          </mxGeometry>
        </mxCell>
        <mxCell id="VJS7mcSHAPVx8ojferBD-19" value="" style="endArrow=none;html=1;labelBorderColor=none;fontSize=17;strokeColor=#457B9D;fontColor=#1D3557;labelBackgroundColor=#F1FAEE;" parent="1" edge="1">
          <mxGeometry width="50" height="50" relative="1" as="geometry">
            <mxPoint x="560" y="602.5" as="sourcePoint" />
            <mxPoint x="560" y="557.5" as="targetPoint" />
          </mxGeometry>
        </mxCell>
        <mxCell id="VJS7mcSHAPVx8ojferBD-21" value="" style="endArrow=none;html=1;labelBorderColor=none;fontSize=17;strokeColor=#457B9D;fontColor=#1D3557;labelBackgroundColor=#F1FAEE;" parent="1" edge="1">
          <mxGeometry width="50" height="50" relative="1" as="geometry">
            <mxPoint x="840" y="690" as="sourcePoint" />
            <mxPoint x="670" y="610" as="targetPoint" />
            <Array as="points">
              <mxPoint x="840" y="650" />
              <mxPoint x="670" y="650" />
            </Array>
          </mxGeometry>
        </mxCell>
        <mxCell id="VJS7mcSHAPVx8ojferBD-22" value="" style="endArrow=none;html=1;entryX=0.5;entryY=0;entryDx=0;entryDy=0;labelBorderColor=none;fontSize=17;strokeColor=#457B9D;fontColor=#1D3557;labelBackgroundColor=#F1FAEE;" parent="1" target="VJS7mcSHAPVx8ojferBD-12" edge="1">
          <mxGeometry width="50" height="50" relative="1" as="geometry">
            <mxPoint x="580" y="613" as="sourcePoint" />
            <mxPoint x="440" y="610" as="targetPoint" />
            <Array as="points">
              <mxPoint x="580" y="630" />
              <mxPoint x="580" y="650" />
              <mxPoint x="440" y="650" />
            </Array>
          </mxGeometry>
        </mxCell>
        <mxCell id="VJS7mcSHAPVx8ojferBD-23" value="" style="endArrow=none;html=1;entryX=0;entryY=0.5;entryDx=0;entryDy=0;labelBorderColor=none;fontSize=17;strokeColor=#457B9D;fontColor=#1D3557;labelBackgroundColor=#F1FAEE;" parent="1" target="VJS7mcSHAPVx8ojferBD-10" edge="1">
          <mxGeometry width="50" height="50" relative="1" as="geometry">
            <mxPoint x="690" y="580" as="sourcePoint" />
            <mxPoint x="680" y="550" as="targetPoint" />
          </mxGeometry>
        </mxCell>
        <mxCell id="VJS7mcSHAPVx8ojferBD-24" value="" style="endArrow=none;html=1;entryX=0.75;entryY=0;entryDx=0;entryDy=0;labelBorderColor=none;fontSize=17;strokeColor=#457B9D;fontColor=#1D3557;labelBackgroundColor=#F1FAEE;exitX=0.25;exitY=1;exitDx=0;exitDy=0;" parent="1" source="VJS7mcSHAPVx8ojferBD-8" target="VJS7mcSHAPVx8ojferBD-5" edge="1">
          <mxGeometry width="50" height="50" relative="1" as="geometry">
            <mxPoint x="820" y="480" as="sourcePoint" />
            <mxPoint x="659" y="538.02" as="targetPoint" />
            <Array as="points">
              <mxPoint x="820" y="518" />
              <mxPoint x="659" y="518.02" />
            </Array>
          </mxGeometry>
        </mxCell>
        <mxCell id="VJS7mcSHAPVx8ojferBD-25" value="" style="endArrow=none;html=1;labelBorderColor=none;fontSize=17;strokeColor=#457B9D;fontColor=#1D3557;labelBackgroundColor=#F1FAEE;" parent="1" edge="1">
          <mxGeometry width="50" height="50" relative="1" as="geometry">
            <mxPoint x="610" y="530" as="sourcePoint" />
            <mxPoint x="650" y="530" as="targetPoint" />
          </mxGeometry>
        </mxCell>
        <mxCell id="VJS7mcSHAPVx8ojferBD-26" value="" style="endArrow=none;html=1;labelBorderColor=none;fontSize=17;strokeColor=#457B9D;fontColor=#1D3557;labelBackgroundColor=#F1FAEE;" parent="1" edge="1">
          <mxGeometry width="50" height="50" relative="1" as="geometry">
            <mxPoint x="640" y="540" as="sourcePoint" />
            <mxPoint x="680" y="540" as="targetPoint" />
          </mxGeometry>
        </mxCell>
        <mxCell id="VJS7mcSHAPVx8ojferBD-27" value="" style="endArrow=none;html=1;labelBorderColor=none;fontSize=17;strokeColor=#457B9D;fontColor=#1D3557;labelBackgroundColor=#F1FAEE;" parent="1" edge="1">
          <mxGeometry width="50" height="50" relative="1" as="geometry">
            <mxPoint x="700" y="600" as="sourcePoint" />
            <mxPoint x="700" y="560" as="targetPoint" />
          </mxGeometry>
        </mxCell>
        <mxCell id="VJS7mcSHAPVx8ojferBD-28" value="" style="endArrow=none;html=1;labelBorderColor=none;fontSize=17;strokeColor=#457B9D;fontColor=#1D3557;labelBackgroundColor=#F1FAEE;" parent="1" edge="1">
          <mxGeometry width="50" height="50" relative="1" as="geometry">
            <mxPoint x="660" y="630" as="sourcePoint" />
            <mxPoint x="694" y="630" as="targetPoint" />
            <Array as="points" />
          </mxGeometry>
        </mxCell>
        <mxCell id="VJS7mcSHAPVx8ojferBD-29" value="" style="endArrow=none;html=1;labelBorderColor=none;fontSize=17;strokeColor=#457B9D;fontColor=#1D3557;labelBackgroundColor=#F1FAEE;" parent="1" edge="1">
          <mxGeometry width="50" height="50" relative="1" as="geometry">
            <mxPoint x="590" y="620" as="sourcePoint" />
            <mxPoint x="620" y="620" as="targetPoint" />
          </mxGeometry>
        </mxCell>
        <mxCell id="VJS7mcSHAPVx8ojferBD-30" value="" style="endArrow=none;html=1;labelBorderColor=none;fontSize=17;strokeColor=#457B9D;fontColor=#1D3557;labelBackgroundColor=#F1FAEE;" parent="1" edge="1">
          <mxGeometry width="50" height="50" relative="1" as="geometry">
            <mxPoint x="560" y="630" as="sourcePoint" />
            <mxPoint x="590" y="630" as="targetPoint" />
          </mxGeometry>
        </mxCell>
        <mxCell id="VJS7mcSHAPVx8ojferBD-31" value="Car" style="text;html=1;strokeColor=none;fillColor=none;align=center;verticalAlign=middle;whiteSpace=wrap;rounded=0;labelBorderColor=none;fontSize=17;fontColor=#1D3557;" parent="1" vertex="1">
          <mxGeometry x="600" y="570" width="70" height="20" as="geometry" />
        </mxCell>
        <mxCell id="VJS7mcSHAPVx8ojferBD-32" value="Interior" style="text;html=1;strokeColor=none;fillColor=none;align=center;verticalAlign=middle;whiteSpace=wrap;rounded=0;labelBorderColor=none;fontSize=17;fontColor=#1D3557;" parent="1" vertex="1">
          <mxGeometry x="410" y="430" width="40" height="20" as="geometry" />
        </mxCell>
        <mxCell id="VJS7mcSHAPVx8ojferBD-45" value="" style="endArrow=none;html=1;labelBorderColor=none;fontSize=17;strokeColor=#457B9D;fontColor=#1D3557;labelBackgroundColor=#F1FAEE;" parent="1" edge="1">
          <mxGeometry width="50" height="50" relative="1" as="geometry">
            <mxPoint x="640" y="680" as="sourcePoint" />
            <mxPoint x="680" y="680" as="targetPoint" />
            <Array as="points">
              <mxPoint x="670" y="680" />
            </Array>
          </mxGeometry>
        </mxCell>
        <mxCell id="VJS7mcSHAPVx8ojferBD-49" value="" style="endArrow=none;html=1;labelBorderColor=none;fontSize=17;strokeColor=#457B9D;fontColor=#1D3557;labelBackgroundColor=#F1FAEE;" parent="1" edge="1">
          <mxGeometry width="50" height="50" relative="1" as="geometry">
            <mxPoint x="820" y="680" as="sourcePoint" />
            <mxPoint x="860" y="680" as="targetPoint" />
            <Array as="points">
              <mxPoint x="850" y="680" />
            </Array>
          </mxGeometry>
        </mxCell>
        <mxCell id="VJS7mcSHAPVx8ojferBD-51" value="" style="endArrow=none;html=1;labelBorderColor=none;fontSize=17;strokeColor=#457B9D;fontColor=#1D3557;labelBackgroundColor=#F1FAEE;" parent="1" edge="1">
          <mxGeometry width="50" height="50" relative="1" as="geometry">
            <mxPoint x="420" y="680" as="sourcePoint" />
            <mxPoint x="460" y="680" as="targetPoint" />
            <Array as="points">
              <mxPoint x="450" y="680" />
            </Array>
          </mxGeometry>
        </mxCell>
        <mxCell id="VJS7mcSHAPVx8ojferBD-52" value="" style="endArrow=none;html=1;labelBorderColor=none;fontSize=17;strokeColor=#457B9D;fontColor=#1D3557;labelBackgroundColor=#F1FAEE;" parent="1" edge="1">
          <mxGeometry width="50" height="50" relative="1" as="geometry">
            <mxPoint x="410" y="480" as="sourcePoint" />
            <mxPoint x="450" y="480" as="targetPoint" />
            <Array as="points">
              <mxPoint x="440" y="480" />
            </Array>
          </mxGeometry>
        </mxCell>
        <mxCell id="VJS7mcSHAPVx8ojferBD-58" value="" style="endArrow=none;html=1;labelBorderColor=none;fontSize=17;strokeColor=#457B9D;fontColor=#1D3557;labelBackgroundColor=#F1FAEE;" parent="1" edge="1">
          <mxGeometry width="50" height="50" relative="1" as="geometry">
            <mxPoint x="740" y="602.5" as="sourcePoint" />
            <mxPoint x="740" y="557.4999999999999" as="targetPoint" />
          </mxGeometry>
        </mxCell>
        <mxCell id="VJS7mcSHAPVx8ojferBD-59" value="" style="endArrow=none;html=1;labelBorderColor=none;fontSize=17;strokeColor=#457B9D;fontColor=#1D3557;labelBackgroundColor=#F1FAEE;" parent="1" edge="1">
          <mxGeometry width="50" height="50" relative="1" as="geometry">
            <mxPoint x="1020" y="557" as="sourcePoint" />
            <mxPoint x="870" y="470" as="targetPoint" />
            <Array as="points">
              <mxPoint x="1020" y="510" />
              <mxPoint x="870" y="510" />
            </Array>
          </mxGeometry>
        </mxCell>
        <mxCell id="VJS7mcSHAPVx8ojferBD-62" value="" style="endArrow=none;html=1;labelBorderColor=none;fontSize=17;strokeColor=#457B9D;fontColor=#1D3557;labelBackgroundColor=#F1FAEE;" parent="1" edge="1">
          <mxGeometry width="50" height="50" relative="1" as="geometry">
            <mxPoint x="800" y="490" as="sourcePoint" />
            <mxPoint x="840" y="490" as="targetPoint" />
            <Array as="points" />
          </mxGeometry>
        </mxCell>
        <mxCell id="8_ONjDjPnMx_GNusaTxZ-3" style="edgeStyle=orthogonalEdgeStyle;rounded=1;orthogonalLoop=1;jettySize=auto;html=1;exitX=0.5;exitY=1;exitDx=0;exitDy=0;entryX=0.5;entryY=0;entryDx=0;entryDy=0;fontColor=#1D3557;strokeColor=#457B9D;fillColor=#A8DADC;endFill=0;endArrow=none;sketch=0;" parent="1" source="VJS7mcSHAPVx8ojferBD-69" target="8_ONjDjPnMx_GNusaTxZ-2" edge="1">
          <mxGeometry relative="1" as="geometry">
            <Array as="points">
              <mxPoint x="1070" y="620" />
              <mxPoint x="1070" y="670" />
              <mxPoint x="1130" y="670" />
            </Array>
          </mxGeometry>
        </mxCell>
        <mxCell id="8_ONjDjPnMx_GNusaTxZ-9" style="edgeStyle=orthogonalEdgeStyle;rounded=1;orthogonalLoop=1;jettySize=auto;html=1;exitX=0.75;exitY=1;exitDx=0;exitDy=0;entryX=0.5;entryY=0;entryDx=0;entryDy=0;fontColor=#1D3557;strokeColor=#457B9D;fillColor=#A8DADC;endFill=0;endArrow=none;sketch=0;" parent="1" source="VJS7mcSHAPVx8ojferBD-69" target="v5nHHOiwAO_BI3E4K7xh-4" edge="1">
          <mxGeometry relative="1" as="geometry">
            <Array as="points">
              <mxPoint x="1100" y="620" />
              <mxPoint x="1100" y="655" />
              <mxPoint x="1275" y="655" />
            </Array>
          </mxGeometry>
        </mxCell>
        <mxCell id="qwMEgNqUELlIysywhyPq-7" style="edgeStyle=orthogonalEdgeStyle;rounded=1;orthogonalLoop=1;jettySize=auto;html=1;exitX=1;exitY=0.5;exitDx=0;exitDy=0;entryX=0;entryY=0.5;entryDx=0;entryDy=0;fontColor=#1D3557;strokeColor=#457B9D;fillColor=#A8DADC;endFill=0;endArrow=none;sketch=0;" parent="1" source="VJS7mcSHAPVx8ojferBD-69" target="qwMEgNqUELlIysywhyPq-6" edge="1">
          <mxGeometry relative="1" as="geometry" />
        </mxCell>
        <mxCell id="VJS7mcSHAPVx8ojferBD-69" value="User" style="rounded=0;whiteSpace=wrap;html=1;labelBorderColor=none;fontSize=17;fillColor=#A8DADC;strokeColor=#457B9D;fontColor=#1D3557;" parent="1" vertex="1">
          <mxGeometry x="1000" y="560" width="120" height="60" as="geometry" />
        </mxCell>
        <mxCell id="uAfk1vnwgpmhD_dbk1Fe-1" style="edgeStyle=orthogonalEdgeStyle;curved=0;rounded=1;sketch=0;orthogonalLoop=1;jettySize=auto;html=1;exitX=0.5;exitY=0;exitDx=0;exitDy=0;strokeColor=#457B9D;fillColor=#A8DADC;fontColor=#1D3557;endArrow=none;endFill=0;entryX=0.329;entryY=0.953;entryDx=0;entryDy=0;entryPerimeter=0;" parent="1" source="VJS7mcSHAPVx8ojferBD-72" target="VJS7mcSHAPVx8ojferBD-69" edge="1">
          <mxGeometry relative="1" as="geometry">
            <mxPoint x="1040" y="622" as="targetPoint" />
            <Array as="points">
              <mxPoint x="990" y="670" />
              <mxPoint x="1040" y="670" />
            </Array>
          </mxGeometry>
        </mxCell>
        <mxCell id="VJS7mcSHAPVx8ojferBD-72" value="Address" style="rounded=0;whiteSpace=wrap;html=1;labelBorderColor=none;fontSize=17;fillColor=#A8DADC;strokeColor=#457B9D;fontColor=#1D3557;" parent="1" vertex="1">
          <mxGeometry x="930" y="690" width="120" height="60" as="geometry" />
        </mxCell>
        <mxCell id="VJS7mcSHAPVx8ojferBD-83" value="" style="endArrow=none;html=1;labelBorderColor=none;fontSize=17;strokeColor=#457B9D;fontColor=#1D3557;labelBackgroundColor=#F1FAEE;" parent="1" edge="1">
          <mxGeometry width="50" height="50" relative="1" as="geometry">
            <mxPoint x="850" y="490" as="sourcePoint" />
            <mxPoint x="890" y="490" as="targetPoint" />
          </mxGeometry>
        </mxCell>
        <mxCell id="VJS7mcSHAPVx8ojferBD-84" value="" style="endArrow=none;html=1;labelBorderColor=none;fontSize=17;strokeColor=#457B9D;fontColor=#1D3557;labelBackgroundColor=#F1FAEE;" parent="1" edge="1">
          <mxGeometry width="50" height="50" relative="1" as="geometry">
            <mxPoint x="990" y="550" as="sourcePoint" />
            <mxPoint x="1040" y="550" as="targetPoint" />
          </mxGeometry>
        </mxCell>
        <mxCell id="ADusKvkkRDpPRXBpd2Ap-1" value="&lt;font style=&quot;font-size: 36px&quot;&gt;Relational Schema&lt;/font&gt;" style="text;html=1;align=center;verticalAlign=middle;resizable=0;points=[];autosize=1;fontColor=#1D3557;" parent="1" vertex="1">
          <mxGeometry x="710" y="240" width="320" height="30" as="geometry" />
        </mxCell>
        <mxCell id="uAfk1vnwgpmhD_dbk1Fe-3" value="" style="endArrow=none;html=1;labelBorderColor=none;fontSize=17;strokeColor=#457B9D;fontColor=#1D3557;labelBackgroundColor=#F1FAEE;" parent="1" edge="1">
          <mxGeometry width="50" height="50" relative="1" as="geometry">
            <mxPoint x="970" y="680" as="sourcePoint" />
            <mxPoint x="1010" y="680" as="targetPoint" />
            <Array as="points">
              <mxPoint x="1000" y="680" />
            </Array>
          </mxGeometry>
        </mxCell>
        <mxCell id="uAfk1vnwgpmhD_dbk1Fe-4" value="" style="endArrow=none;html=1;labelBorderColor=none;fontSize=17;strokeColor=#457B9D;fontColor=#1D3557;labelBackgroundColor=#F1FAEE;" parent="1" edge="1">
          <mxGeometry width="50" height="50" relative="1" as="geometry">
            <mxPoint x="1015" y="630" as="sourcePoint" />
            <mxPoint x="1050" y="630" as="targetPoint" />
          </mxGeometry>
        </mxCell>
        <mxCell id="v5nHHOiwAO_BI3E4K7xh-3" value="Appointment" style="rounded=0;whiteSpace=wrap;html=1;labelBorderColor=none;fontSize=17;fillColor=#A8DADC;strokeColor=#457B9D;fontColor=#1D3557;" parent="1" vertex="1">
          <mxGeometry x="1215" y="400" width="120" height="60" as="geometry" />
        </mxCell>
        <mxCell id="v5nHHOiwAO_BI3E4K7xh-4" value="DealerDetails" style="rounded=0;whiteSpace=wrap;html=1;labelBorderColor=none;fontSize=17;fillColor=#A8DADC;strokeColor=#457B9D;fontColor=#1D3557;" parent="1" vertex="1">
          <mxGeometry x="1215" y="690" width="120" height="60" as="geometry" />
        </mxCell>
        <mxCell id="v5nHHOiwAO_BI3E4K7xh-5" value="" style="endArrow=none;html=1;entryX=0.75;entryY=0;entryDx=0;entryDy=0;labelBorderColor=none;fontSize=17;strokeColor=#457B9D;fontColor=#1D3557;labelBackgroundColor=#F1FAEE;" parent="1" edge="1">
          <mxGeometry width="50" height="50" relative="1" as="geometry">
            <mxPoint x="1261" y="460" as="sourcePoint" />
            <mxPoint x="1101" y="560" as="targetPoint" />
            <Array as="points">
              <mxPoint x="1261" y="528" />
              <mxPoint x="1100" y="528.02" />
            </Array>
          </mxGeometry>
        </mxCell>
        <mxCell id="v5nHHOiwAO_BI3E4K7xh-7" value="" style="endArrow=none;html=1;labelBorderColor=none;fontSize=17;strokeColor=#457B9D;fontColor=#1D3557;labelBackgroundColor=#F1FAEE;" parent="1" edge="1">
          <mxGeometry width="50" height="50" relative="1" as="geometry">
            <mxPoint x="1080" y="630" as="sourcePoint" />
            <mxPoint x="1120" y="630" as="targetPoint" />
            <Array as="points">
              <mxPoint x="1110" y="630" />
            </Array>
          </mxGeometry>
        </mxCell>
        <mxCell id="v5nHHOiwAO_BI3E4K7xh-9" value="" style="endArrow=none;html=1;labelBorderColor=none;fontSize=17;strokeColor=#457B9D;fontColor=#1D3557;labelBackgroundColor=#F1FAEE;" parent="1" edge="1">
          <mxGeometry width="50" height="50" relative="1" as="geometry">
            <mxPoint x="1250" y="680" as="sourcePoint" />
            <mxPoint x="1290" y="680" as="targetPoint" />
            <Array as="points">
              <mxPoint x="1280" y="680" />
            </Array>
          </mxGeometry>
        </mxCell>
        <mxCell id="v5nHHOiwAO_BI3E4K7xh-10" value="" style="endArrow=none;html=1;labelBorderColor=none;fontSize=17;strokeColor=#457B9D;fontColor=#1D3557;labelBackgroundColor=#F1FAEE;" parent="1" edge="1">
          <mxGeometry width="50" height="50" relative="1" as="geometry">
            <mxPoint x="1235" y="470" as="sourcePoint" />
            <mxPoint x="1275" y="470" as="targetPoint" />
            <Array as="points">
              <mxPoint x="1265" y="470" />
            </Array>
          </mxGeometry>
        </mxCell>
        <mxCell id="v5nHHOiwAO_BI3E4K7xh-11" value="" style="endArrow=none;html=1;labelBorderColor=none;fontSize=17;strokeColor=#457B9D;fontColor=#1D3557;labelBackgroundColor=#F1FAEE;" parent="1" edge="1">
          <mxGeometry width="50" height="50" relative="1" as="geometry">
            <mxPoint x="1235" y="480" as="sourcePoint" />
            <mxPoint x="1275" y="480" as="targetPoint" />
            <Array as="points">
              <mxPoint x="1265" y="480" />
            </Array>
          </mxGeometry>
        </mxCell>
        <mxCell id="v5nHHOiwAO_BI3E4K7xh-12" value="" style="endArrow=none;html=1;labelBorderColor=none;fontSize=17;strokeColor=#457B9D;fontColor=#1D3557;labelBackgroundColor=#F1FAEE;" parent="1" edge="1">
          <mxGeometry width="50" height="50" relative="1" as="geometry">
            <mxPoint x="1090" y="549.4300000000001" as="sourcePoint" />
            <mxPoint x="1130" y="549.4300000000001" as="targetPoint" />
            <Array as="points">
              <mxPoint x="1120" y="549.4300000000001" />
            </Array>
          </mxGeometry>
        </mxCell>
        <mxCell id="8_ONjDjPnMx_GNusaTxZ-1" value="" style="endArrow=none;html=1;labelBorderColor=none;fontSize=17;strokeColor=#457B9D;fontColor=#1D3557;labelBackgroundColor=#F1FAEE;" parent="1" edge="1">
          <mxGeometry width="50" height="50" relative="1" as="geometry">
            <mxPoint x="980" y="690" as="sourcePoint" />
            <mxPoint x="1020" y="690" as="targetPoint" />
            <Array as="points">
              <mxPoint x="1010" y="690" />
            </Array>
          </mxGeometry>
        </mxCell>
        <mxCell id="8_ONjDjPnMx_GNusaTxZ-2" value="Coordinates" style="rounded=0;whiteSpace=wrap;html=1;labelBorderColor=none;fontSize=17;fillColor=#A8DADC;strokeColor=#457B9D;fontColor=#1D3557;" parent="1" vertex="1">
          <mxGeometry x="1070" y="690" width="120" height="60" as="geometry" />
        </mxCell>
        <mxCell id="8_ONjDjPnMx_GNusaTxZ-5" value="" style="endArrow=none;html=1;labelBorderColor=none;fontSize=17;strokeColor=#457B9D;fontColor=#1D3557;labelBackgroundColor=#F1FAEE;" parent="1" edge="1">
          <mxGeometry width="50" height="50" relative="1" as="geometry">
            <mxPoint x="1060" y="640" as="sourcePoint" />
            <mxPoint x="1090" y="640" as="targetPoint" />
          </mxGeometry>
        </mxCell>
        <mxCell id="8_ONjDjPnMx_GNusaTxZ-7" value="" style="endArrow=none;html=1;labelBorderColor=none;fontSize=17;strokeColor=#457B9D;fontColor=#1D3557;labelBackgroundColor=#F1FAEE;" parent="1" edge="1">
          <mxGeometry width="50" height="50" relative="1" as="geometry">
            <mxPoint x="1110" y="680" as="sourcePoint" />
            <mxPoint x="1150" y="680" as="targetPoint" />
            <Array as="points" />
          </mxGeometry>
        </mxCell>
        <mxCell id="8_ONjDjPnMx_GNusaTxZ-8" style="edgeStyle=orthogonalEdgeStyle;rounded=0;orthogonalLoop=1;jettySize=auto;html=1;exitX=0.5;exitY=1;exitDx=0;exitDy=0;" parent="1" source="v5nHHOiwAO_BI3E4K7xh-4" target="v5nHHOiwAO_BI3E4K7xh-4" edge="1">
          <mxGeometry relative="1" as="geometry" />
        </mxCell>
        <mxCell id="8_ONjDjPnMx_GNusaTxZ-12" value="User" style="rounded=0;whiteSpace=wrap;html=1;labelBorderColor=none;fontSize=17;fillColor=#A8DADC;strokeColor=#457B9D;fontColor=#1D3557;" parent="1" vertex="1">
          <mxGeometry x="590" y="410" width="120" height="60" as="geometry" />
        </mxCell>
        <mxCell id="qwMEgNqUELlIysywhyPq-2" value="" style="endArrow=none;html=1;labelBorderColor=none;fontSize=17;strokeColor=#457B9D;fontColor=#1D3557;labelBackgroundColor=#F1FAEE;" parent="1" edge="1">
          <mxGeometry width="50" height="50" relative="1" as="geometry">
            <mxPoint x="580" y="540" as="sourcePoint" />
            <mxPoint x="620" y="540" as="targetPoint" />
          </mxGeometry>
        </mxCell>
        <mxCell id="qwMEgNqUELlIysywhyPq-3" value="" style="endArrow=none;html=1;labelBorderColor=none;fontSize=17;strokeColor=#457B9D;fontColor=#1D3557;labelBackgroundColor=#F1FAEE;" parent="1" edge="1">
          <mxGeometry width="50" height="50" relative="1" as="geometry">
            <mxPoint x="630" y="480" as="sourcePoint" />
            <mxPoint x="660" y="480" as="targetPoint" />
          </mxGeometry>
        </mxCell>
        <mxCell id="qwMEgNqUELlIysywhyPq-6" value="PhoneNumber" style="rounded=0;whiteSpace=wrap;html=1;labelBorderColor=none;fontSize=17;fillColor=#A8DADC;strokeColor=#457B9D;fontColor=#1D3557;" parent="1" vertex="1">
          <mxGeometry x="1190" y="560" width="120" height="60" as="geometry" />
        </mxCell>
        <mxCell id="qwMEgNqUELlIysywhyPq-8" value="" style="endArrow=none;html=1;labelBorderColor=none;fontSize=17;strokeColor=#457B9D;fontColor=#1D3557;labelBackgroundColor=#F1FAEE;" parent="1" edge="1">
          <mxGeometry width="50" height="50" relative="1" as="geometry">
            <mxPoint x="1260" y="690" as="sourcePoint" />
            <mxPoint x="1300" y="690" as="targetPoint" />
            <Array as="points">
              <mxPoint x="1290" y="690" />
            </Array>
          </mxGeometry>
        </mxCell>
        <mxCell id="qwMEgNqUELlIysywhyPq-9" value="" style="endArrow=none;html=1;labelBorderColor=none;fontSize=17;strokeColor=#457B9D;fontColor=#1D3557;labelBackgroundColor=#F1FAEE;" parent="1" edge="1">
          <mxGeometry width="50" height="50" relative="1" as="geometry">
            <mxPoint x="1129.5" y="605" as="sourcePoint" />
            <mxPoint x="1129.5" y="575" as="targetPoint" />
          </mxGeometry>
        </mxCell>
        <mxCell id="qwMEgNqUELlIysywhyPq-10" value="" style="endArrow=none;html=1;labelBorderColor=none;fontSize=17;strokeColor=#457B9D;fontColor=#1D3557;labelBackgroundColor=#F1FAEE;" parent="1" edge="1">
          <mxGeometry width="50" height="50" relative="1" as="geometry">
            <mxPoint x="1180" y="605" as="sourcePoint" />
            <mxPoint x="1180" y="575" as="targetPoint" />
          </mxGeometry>
        </mxCell>
        <mxCell id="qwMEgNqUELlIysywhyPq-13" value="Depreciation Factor" style="rounded=0;whiteSpace=wrap;html=1;labelBorderColor=none;fontSize=17;fillColor=#A8DADC;strokeColor=#457B9D;fontColor=#1D3557;" parent="1" vertex="1">
          <mxGeometry x="650" y="690" width="120" height="60" as="geometry" />
        </mxCell>
        <mxCell id="qwMEgNqUELlIysywhyPq-15" value="" style="endArrow=none;html=1;labelBorderColor=none;fontSize=17;strokeColor=#457B9D;fontColor=#1D3557;labelBackgroundColor=#F1FAEE;" parent="1" edge="1">
          <mxGeometry width="50" height="50" relative="1" as="geometry">
            <mxPoint x="560" y="680" as="sourcePoint" />
            <mxPoint x="600" y="680" as="targetPoint" />
            <Array as="points">
              <mxPoint x="600" y="680" />
            </Array>
          </mxGeometry>
        </mxCell>
        <mxCell id="qwMEgNqUELlIysywhyPq-16" value="" style="endArrow=none;html=1;labelBorderColor=none;fontSize=17;strokeColor=#457B9D;fontColor=#1D3557;labelBackgroundColor=#F1FAEE;" parent="1" edge="1">
          <mxGeometry width="50" height="50" relative="1" as="geometry">
            <mxPoint x="615" y="630" as="sourcePoint" />
            <mxPoint x="645" y="630" as="targetPoint" />
          </mxGeometry>
        </mxCell>
        <mxCell id="qwMEgNqUELlIysywhyPq-18" value="" style="endArrow=none;html=1;labelBorderColor=none;fontSize=17;strokeColor=#457B9D;fontColor=#1D3557;labelBackgroundColor=#F1FAEE;" parent="1" edge="1">
          <mxGeometry width="50" height="50" relative="1" as="geometry">
            <mxPoint x="850" y="480" as="sourcePoint" />
            <mxPoint x="890" y="480" as="targetPoint" />
          </mxGeometry>
        </mxCell>
        <mxCell id="qwMEgNqUELlIysywhyPq-19" value="" style="endArrow=none;html=1;labelBorderColor=none;fontSize=17;strokeColor=#457B9D;fontColor=#1D3557;labelBackgroundColor=#F1FAEE;" parent="1" edge="1">
          <mxGeometry width="50" height="50" relative="1" as="geometry">
            <mxPoint x="1170" y="600" as="sourcePoint" />
            <mxPoint x="1170" y="580" as="targetPoint" />
            <Array as="points">
              <mxPoint x="1170" y="580" />
            </Array>
          </mxGeometry>
        </mxCell>
      </root>
    </mxGraphModel>
  </diagram>
</mxfile>
